# xmcd CD database file
#
# Track frame offsets:
#	150
#	12550
#	23987
#	46712
#	56200
#	71050
#	87737
#	105287
#	115262
#	128350
#	143012
#	158125
#	170950
#	184262
#	197612
#
# Disc length: 2797 seconds
#
# Revision: 3
# Processed by: cddbd v1.4PL0 Copyright (c) Steve Scherf et al.
# Submitted via: CDex 1.40Beta8
#
DISCID=d00aeb0f
DTITLE=Various Artist - Blues Juke Box Hits (Volume 3 of 4)
DYEAR=1900
DGENRE=Blues
TTITLE0=Ray Charles-Rockin' Chair Blues
TTITLE1=John Lee Hooker-Boogie Chillun'
TTITLE2=Bo Diddley-Doctor Jeckyll
TTITLE3=Lowell Fulson-Everyday I Have The Blues
TTITLE4=Roosevelt Sykes-Out on A Limb
TTITLE5=Howlin' Wolf-Sittin' On Top Of The World
TTITLE6=Cow Cow Davenport-Atlanta Rag
TTITLE7=Jimmy Rushing-She's Mine She's Yours
TTITLE8=Ray Charles-Alone In The City
TTITLE9=Sonny Terry-Ham And Eggs
TTITLE10=Lightnin' Hopkins-New Car Blues
TTITLE11=Leadbelly-Good Morning Blues
TTITLE12=Memphis Slim-Harlem Bound
TTITLE13=Jimmy Witherspoon-Kansas City
TTITLE14=Charlie Brown- Trouble Blues
EXTD=A collection of 60 blues songs by the original artists. ID3G: 0
EXTT0=
EXTT1=
EXTT2=
EXTT3=
EXTT4=
EXTT5=
EXTT6=
EXTT7=
EXTT8=
EXTT9=
EXTT10=
EXTT11=
EXTT12=
EXTT13=
EXTT14=
PLAYORDER=
